<svg xmlns="http://www.w3.org/2000/svg" viewBox="0 0 254.12766 91.64186"><defs><style>.cls-1{fill:#ffe508;}.cls-2{fill:#a8a9ad;}.cls-3{fill:#e6e7e9;}</style></defs><g id="Layer_2" data-name="Layer 2"><g id="Layer_1-2" data-name="Layer 1"><path class="cls-1" d="M90.51677,78.85006a13.08852,13.08852,0,0,1-5.78249,1.53422,4.19152,4.19152,0,0,1-4.18459-2.249L75.209,67.877,52.56516,79.66582a5.44093,5.44093,0,0,1-7.75256-2.60517,6.44841,6.44841,0,0,1-.51179-1.456,8.60251,8.60251,0,0,1-.22565-1.85l-.46769-55.47538a7.28271,7.28271,0,0,1,1.1955-4.43613,8.59875,8.59875,0,0,1,3.07939-2.70947,9.83424,9.83424,0,0,1,3.44819-.93514,10.45492,10.45492,0,0,1,4.13007.37228,4.63119,4.63119,0,0,1,2.94187,2.34219,5.82048,5.82048,0,0,1,.47358,2.09094l.75649,43.27124,8.32194-4.33255-3.52666-6.774a4.06076,4.06076,0,0,1,.55708-4.71875A14.79959,14.79959,0,0,1,75.33962,37.059a4.0622,4.0622,0,0,1,4.18509,2.2499l3.52665,6.774,4.161-2.16628a4.20971,4.20971,0,0,1,4.617.36384,11.28331,11.28331,0,0,1,3.65539,4.18569,9.53009,9.53009,0,0,1,1.04189,5.54513q-.318,2.93306-2.05969,3.83982l-4.161,2.16627,5.34065,10.25831a4.19306,4.19306,0,0,1-.55757,4.71781A13.097,13.097,0,0,1,90.51677,78.85006Z"/><path class="cls-1" d="M131.42724,79.08047a35.15885,35.15885,0,0,1-13.775,1.02368A20.19647,20.19647,0,0,1,106.288,74.62883q-4.8723-4.58452-7.254-13.661L91.68975,33.00457q-2.383-9.07341-.39506-15.46248A20.21964,20.21964,0,0,1,98.50181,7.18918a35.17863,35.17863,0,0,1,12.50027-5.87727A35.59559,35.59559,0,0,1,124.82964.27443a20.19545,20.19545,0,0,1,11.41681,5.46151q4.86961,4.5869,7.254,13.66106l7.34427,27.96321q2.38386,9.0765.39506,15.46247a20.17258,20.17258,0,0,1-7.25968,10.36672A35.57563,35.57563,0,0,1,131.42724,79.08047ZM127.65821,64.73a9.72681,9.72681,0,0,0,6.29876-4.362q1.86693-3.19687.42676-8.68448l-7.34427-27.9632q-1.44078-5.48578-4.6391-7.354a9.72683,9.72683,0,0,0-7.62926-.7039,9.54159,9.54159,0,0,0-6.24723,4.34843q-1.81437,3.18307-.37317,8.6704L115.495,56.64447q1.4412,5.48732,4.58552,7.368A9.54161,9.54161,0,0,0,127.65821,64.73Z"/><path class="cls-1" d="M150.94366,74.85667a13.08862,13.08862,0,0,1-1.6545-5.74923,4.19152,4.19152,0,0,1,2.16119-4.23059L161.595,59.3234,149.3365,36.93033a5.44094,5.44094,0,0,1,2.44292-7.80521,6.44772,6.44772,0,0,1,1.445-.542,8.60236,8.60236,0,0,1,1.84494-.26419L210.523,26.69423a7.28272,7.28272,0,0,1,4.4601,1.10271,8.59874,8.59874,0,0,1,2.7731,3.02221,9.83441,9.83441,0,0,1,1.00687,3.42794A10.45515,10.45515,0,0,1,218.477,38.384a4.63118,4.63118,0,0,1-2.28033,2.99009,5.82054,5.82054,0,0,1-2.0806.51708L170.87,43.55l4.50518,8.22976,6.69895-3.66717a4.06074,4.06074,0,0,1,4.72934.45854,14.7995,14.7995,0,0,1,5.60564,10.24,4.06219,4.06219,0,0,1-2.16212,4.2311L183.548,66.70945l2.25259,4.11488a4.20971,4.20971,0,0,1-.26746,4.62354,11.2833,11.2833,0,0,1-4.10854,3.74189,9.53008,9.53008,0,0,1-5.52219,1.15732q-2.93906-.25675-3.88194-1.97916L169.7679,74.253,159.62321,79.8065a4.19308,4.19308,0,0,1-4.72841-.45905A13.09714,13.09714,0,0,1,150.94366,74.85667Z"/><path class="cls-2" d="M1.78723,81.93974H252.46809a0,0,0,0,1,0,0V87.4291a4.21276,4.21276,0,0,1-4.21276,4.21276H6A4.21276,4.21276,0,0,1,1.78723,87.4291V81.93974a0,0,0,0,1,0,0Z"/><rect class="cls-3" y="80.38654" width="254.12766" height="3.10638" rx="0.76596"/></g></g></svg>